<svg width="62" height="23" viewBox="0 0 62 23" fill="none" xmlns="http://www.w3.org/2000/svg">
<path d="M8.86065 10.2866V12.0563H11.7147V13.7014H8.86065V15.6207H12.0885V17.3281H6.72949V8.57916H12.0885V10.2866H8.86065ZM16.7499 8.57916C17.6721 8.57916 18.4781 8.76195 19.1677 9.12753C19.8573 9.49311 20.389 10.0082 20.7629 10.6729C21.1451 11.3293 21.3362 12.0895 21.3362 12.9536C21.3362 13.8094 21.1451 14.5697 20.7629 15.2344C20.389 15.899 19.8531 16.4142 19.1552 16.7798C18.4656 17.1453 17.6638 17.3281 16.7499 17.3281H13.4721V8.57916H16.7499ZM16.6128 15.4836C17.4187 15.4836 18.046 15.2634 18.4947 14.8231C18.9433 14.3827 19.1677 13.7596 19.1677 12.9536C19.1677 12.1477 18.9433 11.5204 18.4947 11.0717C18.046 10.6231 17.4187 10.3987 16.6128 10.3987H15.6033V15.4836H16.6128ZM24.621 8.57916V13.8136C24.621 14.337 24.7498 14.74 25.0073 15.0225C25.2649 15.305 25.6429 15.4462 26.1415 15.4462C26.64 15.4462 27.0222 15.305 27.288 15.0225C27.5539 14.74 27.6869 14.337 27.6869 13.8136V8.57916H29.818V13.8011C29.818 14.5821 29.6518 15.2427 29.3195 15.7827C28.9872 16.3228 28.5385 16.7299 27.9735 17.0041C27.4168 17.2783 26.7937 17.4154 26.1041 17.4154C25.4144 17.4154 24.7955 17.2824 24.2471 17.0166C23.707 16.7424 23.2791 16.3352 22.9634 15.7952C22.6477 15.2468 22.4898 14.5821 22.4898 13.8011V8.57916H24.621ZM39.5276 8.57916L36.4243 17.3281H33.7573L30.654 8.57916H32.9223L35.0908 15.1845L37.2718 8.57916H39.5276ZM42.5495 10.2866V12.0563H45.4035V13.7014H42.5495V15.6207H45.7774V17.3281H40.4183V8.57916H45.7774V10.2866H42.5495ZM50.3265 17.4154C49.6868 17.4154 49.1135 17.3115 48.6066 17.1038C48.0998 16.8961 47.6927 16.5887 47.3853 16.1815C47.0862 15.7744 46.9283 15.2842 46.9117 14.7109H49.1799C49.2132 15.0349 49.3253 15.2842 49.5164 15.4587C49.7075 15.6249 49.9568 15.7079 50.2642 15.7079C50.5799 15.7079 50.8292 15.6373 51.012 15.4961C51.1948 15.3465 51.2862 15.143 51.2862 14.8854C51.2862 14.6694 51.2114 14.4907 51.0618 14.3495C50.9206 14.2082 50.7419 14.0919 50.5259 14.0005C50.3182 13.9091 50.0191 13.8053 49.6286 13.689C49.0636 13.5145 48.6025 13.34 48.2452 13.1655C47.8879 12.991 47.5805 12.7335 47.323 12.3928C47.0654 12.0522 46.9366 11.6076 46.9366 11.0593C46.9366 10.245 47.2316 9.60943 47.8215 9.15245C48.4114 8.68717 49.1799 8.45453 50.1271 8.45453C51.0909 8.45453 51.8678 8.68717 52.4577 9.15245C53.0476 9.60943 53.3633 10.2492 53.4049 11.0717H51.0992C51.0826 10.7892 50.9787 10.5691 50.7876 10.4112C50.5965 10.245 50.3514 10.1619 50.0523 10.1619C49.7948 10.1619 49.5871 10.2326 49.4292 10.3738C49.2713 10.5068 49.1924 10.702 49.1924 10.9596C49.1924 11.2421 49.3253 11.4622 49.5912 11.6201C49.8571 11.778 50.2725 11.9483 50.8375 12.1311C51.4025 12.3222 51.8595 12.505 52.2084 12.6795C52.5657 12.8539 52.8731 13.1074 53.1307 13.4397C53.3882 13.772 53.517 14.1999 53.517 14.7234C53.517 15.2219 53.3882 15.6747 53.1307 16.0818C52.8814 16.489 52.5158 16.813 52.0339 17.0539C51.552 17.2949 50.9829 17.4154 50.3265 17.4154ZM61.1223 8.57916V10.2866H58.8042V17.3281H56.6731V10.2866H54.355V8.57916H61.1223Z" fill="white"/>
<path d="M3.69582 8.27483C4.74642 7.56866 8.28145 5.50379 12.1618 6.709C12.2863 6.74766 12.4162 6.65658 12.4162 6.52624V5.36712C12.4162 5.2925 12.46 5.22482 12.528 5.19423L15.4822 3.8662C15.6302 3.79967 15.6317 3.59005 15.4846 3.52149L8.01003 0.0373316C7.95926 0.0136662 7.90063 0.0136662 7.84986 0.0373315L0.3877 3.51571C0.23865 3.58519 0.242713 3.7985 0.3943 3.86226L3.28448 5.07775C3.34266 5.10222 3.38049 5.15918 3.38049 5.22229C3.38049 5.32764 3.48095 5.40366 3.58195 5.37373C4.02473 5.24253 5.12037 4.92553 6.08749 4.70727C6.30566 4.65803 6.31671 4.74359 6.09917 4.79558C5.09236 5.03623 3.87585 5.40492 3.42705 5.85746C3.39533 5.88945 3.38049 5.93271 3.38049 5.97776V8.11054C3.38049 8.26837 3.56483 8.36288 3.69582 8.27483Z" fill="white"/>
<path d="M27.9708 20.6094H28.6967V20.8296H27.7V18.756H27.9708V20.6094ZM30.4717 19.952C30.4717 20.0035 30.4687 20.0581 30.4627 20.1156H29.1597C29.1696 20.2762 29.2241 20.4022 29.3233 20.4934C29.4245 20.5827 29.5464 20.6273 29.6892 20.6273C29.8063 20.6273 29.9034 20.6005 29.9808 20.547C30.0601 20.4914 30.1157 20.418 30.1474 20.3268H30.4389C30.3953 20.4835 30.308 20.6114 30.1771 20.7106C30.0462 20.8078 29.8836 20.8564 29.6892 20.8564C29.5345 20.8564 29.3957 20.8217 29.2727 20.7522C29.1518 20.6828 29.0566 20.5846 28.9871 20.4577C28.9177 20.3288 28.883 20.18 28.883 20.0115C28.883 19.8429 28.9167 19.6951 28.9842 19.5682C29.0516 19.4412 29.1458 19.3441 29.2668 19.2766C29.3898 19.2072 29.5306 19.1725 29.6892 19.1725C29.8439 19.1725 29.9808 19.2062 30.0998 19.2737C30.2188 19.3411 30.31 19.4343 30.3735 19.5533C30.4389 19.6703 30.4717 19.8032 30.4717 19.952ZM30.192 19.8954C30.192 19.7923 30.1692 19.704 30.1236 19.6307C30.078 19.5553 30.0155 19.4988 29.9362 19.4611C29.8588 19.4214 29.7725 19.4016 29.6773 19.4016C29.5405 19.4016 29.4235 19.4452 29.3263 19.5325C29.2311 19.6197 29.1765 19.7407 29.1627 19.8954H30.192ZM30.7279 20.0085C30.7279 19.8419 30.7616 19.6961 30.829 19.5712C30.8965 19.4442 30.9887 19.346 31.1057 19.2766C31.2247 19.2072 31.3566 19.1725 31.5014 19.1725C31.6442 19.1725 31.7681 19.2032 31.8733 19.2647C31.9784 19.3262 32.0567 19.4036 32.1083 19.4968V19.1993H32.382V20.8296H32.1083V20.5261C32.0547 20.6213 31.9744 20.7007 31.8673 20.7641C31.7622 20.8256 31.6392 20.8564 31.4984 20.8564C31.3536 20.8564 31.2227 20.8207 31.1057 20.7493C30.9887 20.6779 30.8965 20.5777 30.829 20.4488C30.7616 20.3199 30.7279 20.1731 30.7279 20.0085ZM32.1083 20.0115C32.1083 19.8885 32.0835 19.7814 32.0339 19.6902C31.9843 19.5989 31.9169 19.5295 31.8316 19.4819C31.7483 19.4323 31.6561 19.4075 31.5549 19.4075C31.4538 19.4075 31.3616 19.4313 31.2783 19.4789C31.1949 19.5265 31.1285 19.5959 31.0789 19.6872C31.0293 19.7784 31.0045 19.8855 31.0045 20.0085C31.0045 20.1334 31.0293 20.2425 31.0789 20.3357C31.1285 20.427 31.1949 20.4974 31.2783 20.547C31.3616 20.5946 31.4538 20.6184 31.5549 20.6184C31.6561 20.6184 31.7483 20.5946 31.8316 20.547C31.9169 20.4974 31.9843 20.427 32.0339 20.3357C32.0835 20.2425 32.1083 20.1344 32.1083 20.0115ZM33.1102 19.4641C33.1578 19.3708 33.2252 19.2984 33.3125 19.2469C33.4018 19.1953 33.5099 19.1695 33.6368 19.1695V19.4492H33.5654C33.2619 19.4492 33.1102 19.6138 33.1102 19.943V20.8296H32.8395V19.1993H33.1102V19.4641ZM34.7436 19.1695C34.942 19.1695 35.1026 19.23 35.2256 19.351C35.3486 19.47 35.41 19.6426 35.41 19.8687V20.8296H35.1423V19.9073C35.1423 19.7447 35.1016 19.6207 35.0203 19.5355C34.939 19.4482 34.8279 19.4046 34.6871 19.4046C34.5443 19.4046 34.4303 19.4492 34.345 19.5384C34.2617 19.6277 34.22 19.7576 34.22 19.9282V20.8296H33.9493V19.1993H34.22V19.4313C34.2736 19.348 34.346 19.2836 34.4372 19.238C34.5304 19.1923 34.6326 19.1695 34.7436 19.1695ZM35.9385 20.8474C35.887 20.8474 35.8433 20.8296 35.8076 20.7939C35.7719 20.7582 35.7541 20.7146 35.7541 20.663C35.7541 20.6114 35.7719 20.5678 35.8076 20.5321C35.8433 20.4964 35.887 20.4785 35.9385 20.4785C35.9881 20.4785 36.0298 20.4964 36.0635 20.5321C36.0992 20.5678 36.117 20.6114 36.117 20.663C36.117 20.7146 36.0992 20.7582 36.0635 20.7939C36.0298 20.8296 35.9881 20.8474 35.9385 20.8474ZM37.5408 18.756V20.8296H37.2701V18.756H37.5408ZM38.7965 19.1695C38.9949 19.1695 39.1555 19.23 39.2785 19.351C39.4014 19.47 39.4629 19.6426 39.4629 19.8687V20.8296H39.1952V19.9073C39.1952 19.7447 39.1545 19.6207 39.0732 19.5355C38.9919 19.4482 38.8808 19.4046 38.74 19.4046C38.5972 19.4046 38.4831 19.4492 38.3979 19.5384C38.3146 19.6277 38.2729 19.7576 38.2729 19.9282V20.8296H38.0022V19.1993H38.2729V19.4313C38.3265 19.348 38.3989 19.2836 38.4901 19.238C38.5833 19.1923 38.6854 19.1695 38.7965 19.1695ZM40.5121 20.5797L41.0178 19.1993H41.3064L40.6668 20.8296H40.3514L39.7118 19.1993H40.0033L40.5121 20.5797ZM43.0603 19.952C43.0603 20.0035 43.0573 20.0581 43.0514 20.1156H41.7483C41.7582 20.2762 41.8128 20.4022 41.9119 20.4934C42.0131 20.5827 42.1351 20.6273 42.2779 20.6273C42.3949 20.6273 42.4921 20.6005 42.5694 20.547C42.6488 20.4914 42.7043 20.418 42.736 20.3268H43.0276C42.9839 20.4835 42.8967 20.6114 42.7658 20.7106C42.6349 20.8078 42.4722 20.8564 42.2779 20.8564C42.1232 20.8564 41.9843 20.8217 41.8614 20.7522C41.7404 20.6828 41.6452 20.5846 41.5758 20.4577C41.5063 20.3288 41.4716 20.18 41.4716 20.0115C41.4716 19.8429 41.5054 19.6951 41.5728 19.5682C41.6402 19.4412 41.7344 19.3441 41.8554 19.2766C41.9784 19.2072 42.1192 19.1725 42.2779 19.1725C42.4326 19.1725 42.5694 19.2062 42.6884 19.2737C42.8074 19.3411 42.8987 19.4343 42.9621 19.5533C43.0276 19.6703 43.0603 19.8032 43.0603 19.952ZM42.7806 19.8954C42.7806 19.7923 42.7578 19.704 42.7122 19.6307C42.6666 19.5553 42.6041 19.4988 42.5248 19.4611C42.4474 19.4214 42.3612 19.4016 42.266 19.4016C42.1291 19.4016 42.0121 19.4452 41.9149 19.5325C41.8197 19.6197 41.7652 19.7407 41.7513 19.8954H42.7806ZM43.9948 20.8564C43.8699 20.8564 43.7578 20.8355 43.6586 20.7939C43.5595 20.7503 43.4811 20.6908 43.4236 20.6154C43.3661 20.538 43.3343 20.4498 43.3284 20.3506H43.6081C43.616 20.4319 43.6537 20.4984 43.7211 20.5499C43.7905 20.6015 43.8808 20.6273 43.9918 20.6273C44.095 20.6273 44.1763 20.6045 44.2358 20.5589C44.2953 20.5132 44.325 20.4557 44.325 20.3863C44.325 20.3149 44.2933 20.2624 44.2298 20.2286C44.1664 20.1929 44.0682 20.1582 43.9353 20.1245C43.8143 20.0928 43.7152 20.061 43.6378 20.0293C43.5624 19.9956 43.497 19.947 43.4414 19.8835C43.3879 19.8181 43.3611 19.7328 43.3611 19.6277C43.3611 19.5444 43.3859 19.468 43.4355 19.3986C43.4851 19.3292 43.5555 19.2746 43.6467 19.235C43.738 19.1933 43.8421 19.1725 43.9591 19.1725C44.1396 19.1725 44.2854 19.2181 44.3964 19.3094C44.5075 19.4006 44.567 19.5255 44.5749 19.6842H44.3042C44.2983 19.5989 44.2635 19.5305 44.2001 19.4789C44.1386 19.4274 44.0553 19.4016 43.9502 19.4016C43.853 19.4016 43.7756 19.4224 43.7181 19.4641C43.6606 19.5057 43.6319 19.5602 43.6319 19.6277C43.6319 19.6812 43.6487 19.7259 43.6824 19.7616C43.7181 19.7953 43.7618 19.823 43.8133 19.8449C43.8669 19.8647 43.9403 19.8875 44.0335 19.9133C44.1505 19.945 44.2457 19.9768 44.3191 20.0085C44.3925 20.0382 44.4549 20.0839 44.5065 20.1453C44.5601 20.2068 44.5878 20.2871 44.5898 20.3863C44.5898 20.4756 44.565 20.5559 44.5154 20.6273C44.4658 20.6987 44.3954 20.7552 44.3042 20.7969C44.215 20.8365 44.1118 20.8564 43.9948 20.8564ZM45.3022 19.4224V20.3833C45.3022 20.4627 45.3191 20.5192 45.3528 20.5529C45.3865 20.5846 45.445 20.6005 45.5283 20.6005H45.7276V20.8296H45.4837C45.3329 20.8296 45.2199 20.7949 45.1445 20.7255C45.0692 20.656 45.0315 20.542 45.0315 20.3833V19.4224H44.8203V19.1993H45.0315V18.7887H45.3022V19.1993H45.7276V19.4224H45.3022ZM46.1419 20.8474C46.0904 20.8474 46.0467 20.8296 46.011 20.7939C45.9753 20.7582 45.9575 20.7146 45.9575 20.663C45.9575 20.6114 45.9753 20.5678 46.011 20.5321C46.0467 20.4964 46.0904 20.4785 46.1419 20.4785C46.1915 20.4785 46.2332 20.4964 46.2669 20.5321C46.3026 20.5678 46.3204 20.6114 46.3204 20.663C46.3204 20.7146 46.3026 20.7582 46.2669 20.7939C46.2332 20.8296 46.1915 20.8474 46.1419 20.8474ZM48.1309 20.8504C47.9941 20.8504 47.8711 20.8266 47.762 20.779C47.6549 20.7294 47.5706 20.662 47.5091 20.5767C47.4477 20.4894 47.4159 20.3893 47.4139 20.2762H47.7025C47.7124 20.3734 47.7521 20.4557 47.8215 20.5232C47.8929 20.5886 47.996 20.6213 48.1309 20.6213C48.2598 20.6213 48.361 20.5896 48.4344 20.5261C48.5097 20.4607 48.5474 20.3774 48.5474 20.2762C48.5474 20.1969 48.5256 20.1324 48.482 20.0829C48.4383 20.0333 48.3838 19.9956 48.3183 19.9698C48.2529 19.944 48.1646 19.9163 48.0536 19.8865C47.9167 19.8508 47.8066 19.8151 47.7233 19.7794C47.642 19.7437 47.5716 19.6882 47.5121 19.6128C47.4546 19.5355 47.4258 19.4323 47.4258 19.3034C47.4258 19.1904 47.4546 19.0902 47.5121 19.0029C47.5696 18.9157 47.65 18.8482 47.7531 18.8006C47.8582 18.753 47.9782 18.7292 48.1131 18.7292C48.3074 18.7292 48.4661 18.7778 48.5891 18.875C48.714 18.9722 48.7844 19.1011 48.8003 19.2618H48.5028C48.4929 19.1824 48.4512 19.113 48.3778 19.0535C48.3045 18.992 48.2073 18.9613 48.0863 18.9613C47.9732 18.9613 47.881 18.991 47.8096 19.0505C47.7382 19.108 47.7025 19.1894 47.7025 19.2945C47.7025 19.3698 47.7233 19.4313 47.765 19.4789C47.8086 19.5265 47.8612 19.5632 47.9227 19.589C47.9861 19.6128 48.0744 19.6406 48.1874 19.6723C48.3243 19.71 48.4344 19.7477 48.5177 19.7854C48.601 19.8211 48.6724 19.8776 48.7319 19.9549C48.7914 20.0303 48.8211 20.1334 48.8211 20.2643C48.8211 20.3655 48.7943 20.4607 48.7408 20.5499C48.6872 20.6392 48.6079 20.7116 48.5028 20.7671C48.3977 20.8226 48.2737 20.8504 48.1309 20.8504ZM50.6654 19.1993V20.8296H50.3946V20.5886C50.3431 20.6719 50.2707 20.7374 50.1775 20.785C50.0862 20.8306 49.9851 20.8534 49.874 20.8534C49.7471 20.8534 49.633 20.8276 49.5319 20.776C49.4307 20.7225 49.3504 20.6432 49.2909 20.538C49.2334 20.4329 49.2046 20.305 49.2046 20.1543V19.1993H49.4724V20.1186C49.4724 20.2792 49.5131 20.4032 49.5944 20.4904C49.6757 20.5757 49.7868 20.6184 49.9276 20.6184C50.0724 20.6184 50.1864 20.5737 50.2697 20.4845C50.353 20.3952 50.3946 20.2653 50.3946 20.0948V19.1993H50.6654ZM51.0213 20.0115C51.0213 19.8429 51.055 19.6961 51.1225 19.5712C51.1899 19.4442 51.2831 19.346 51.4021 19.2766C51.5231 19.2072 51.661 19.1725 51.8157 19.1725C52.016 19.1725 52.1806 19.2211 52.3095 19.3183C52.4404 19.4155 52.5267 19.5503 52.5683 19.7229H52.2768C52.249 19.6237 52.1945 19.5454 52.1132 19.4879C52.0338 19.4303 51.9347 19.4016 51.8157 19.4016C51.661 19.4016 51.536 19.4551 51.4408 19.5622C51.3456 19.6673 51.298 19.8171 51.298 20.0115C51.298 20.2078 51.3456 20.3595 51.4408 20.4666C51.536 20.5737 51.661 20.6273 51.8157 20.6273C51.9347 20.6273 52.0338 20.5995 52.1132 20.544C52.1925 20.4885 52.247 20.4091 52.2768 20.306H52.5683C52.5247 20.4726 52.4374 20.6065 52.3065 20.7076C52.1756 20.8068 52.012 20.8564 51.8157 20.8564C51.661 20.8564 51.5231 20.8217 51.4021 20.7522C51.2831 20.6828 51.1899 20.5846 51.1225 20.4577C51.055 20.3308 51.0213 20.182 51.0213 20.0115ZM52.8284 20.0115C52.8284 19.8429 52.8621 19.6961 52.9296 19.5712C52.997 19.4442 53.0902 19.346 53.2092 19.2766C53.3302 19.2072 53.4681 19.1725 53.6228 19.1725C53.8231 19.1725 53.9877 19.2211 54.1166 19.3183C54.2475 19.4155 54.3338 19.5503 54.3754 19.7229H54.0839C54.0561 19.6237 54.0016 19.5454 53.9203 19.4879C53.8409 19.4303 53.7418 19.4016 53.6228 19.4016C53.4681 19.4016 53.3431 19.4551 53.2479 19.5622C53.1527 19.6673 53.1051 19.8171 53.1051 20.0115C53.1051 20.2078 53.1527 20.3595 53.2479 20.4666C53.3431 20.5737 53.4681 20.6273 53.6228 20.6273C53.7418 20.6273 53.8409 20.5995 53.9203 20.544C53.9996 20.4885 54.0541 20.4091 54.0839 20.306H54.3754C54.3318 20.4726 54.2445 20.6065 54.1136 20.7076C53.9827 20.8068 53.8191 20.8564 53.6228 20.8564C53.4681 20.8564 53.3302 20.8217 53.2092 20.7522C53.0902 20.6828 52.997 20.5846 52.9296 20.4577C52.8621 20.3308 52.8284 20.182 52.8284 20.0115ZM56.2242 19.952C56.2242 20.0035 56.2212 20.0581 56.2152 20.1156H54.9122C54.9221 20.2762 54.9766 20.4022 55.0758 20.4934C55.177 20.5827 55.2989 20.6273 55.4417 20.6273C55.5588 20.6273 55.6559 20.6005 55.7333 20.547C55.8126 20.4914 55.8682 20.418 55.8999 20.3268H56.1914C56.1478 20.4835 56.0605 20.6114 55.9296 20.7106C55.7987 20.8078 55.6361 20.8564 55.4417 20.8564C55.287 20.8564 55.1482 20.8217 55.0252 20.7522C54.9043 20.6828 54.8091 20.5846 54.7396 20.4577C54.6702 20.3288 54.6355 20.18 54.6355 20.0115C54.6355 19.8429 54.6692 19.6951 54.7367 19.5682C54.8041 19.4412 54.8983 19.3441 55.0193 19.2766C55.1423 19.2072 55.2831 19.1725 55.4417 19.1725C55.5964 19.1725 55.7333 19.2062 55.8523 19.2737C55.9713 19.3411 56.0625 19.4343 56.126 19.5533C56.1914 19.6703 56.2242 19.8032 56.2242 19.952ZM55.9445 19.8954C55.9445 19.7923 55.9217 19.704 55.8761 19.6307C55.8305 19.5553 55.768 19.4988 55.6887 19.4611C55.6113 19.4214 55.525 19.4016 55.4298 19.4016C55.293 19.4016 55.176 19.4452 55.0788 19.5325C54.9836 19.6197 54.929 19.7407 54.9152 19.8954H55.9445ZM58.069 19.952C58.069 20.0035 58.0661 20.0581 58.0601 20.1156H56.7571C56.767 20.2762 56.8215 20.4022 56.9207 20.4934C57.0218 20.5827 57.1438 20.6273 57.2866 20.6273C57.4036 20.6273 57.5008 20.6005 57.5782 20.547C57.6575 20.4914 57.713 20.418 57.7448 20.3268H58.0363C57.9927 20.4835 57.9054 20.6114 57.7745 20.7106C57.6436 20.8078 57.481 20.8564 57.2866 20.8564C57.1319 20.8564 56.9931 20.8217 56.8701 20.7522C56.7491 20.6828 56.6539 20.5846 56.5845 20.4577C56.5151 20.3288 56.4804 20.18 56.4804 20.0115C56.4804 19.8429 56.5141 19.6951 56.5815 19.5682C56.649 19.4412 56.7432 19.3441 56.8642 19.2766C56.9871 19.2072 57.1279 19.1725 57.2866 19.1725C57.4413 19.1725 57.5782 19.2062 57.6972 19.2737C57.8162 19.3411 57.9074 19.4343 57.9709 19.5533C58.0363 19.6703 58.069 19.8032 58.069 19.952ZM57.7894 19.8954C57.7894 19.7923 57.7666 19.704 57.721 19.6307C57.6753 19.5553 57.6129 19.4988 57.5335 19.4611C57.4562 19.4214 57.3699 19.4016 57.2747 19.4016C57.1379 19.4016 57.0208 19.4452 56.9237 19.5325C56.8285 19.6197 56.7739 19.7407 56.76 19.8954H57.7894ZM58.3252 20.0085C58.3252 19.8419 58.359 19.6961 58.4264 19.5712C58.4938 19.4442 58.586 19.346 58.7031 19.2766C58.8221 19.2072 58.9549 19.1725 59.1017 19.1725C59.2286 19.1725 59.3467 19.2023 59.4557 19.2618C59.5648 19.3193 59.6481 19.3956 59.7056 19.4908V18.6281H59.9793V20.8296H59.7056V20.5232C59.6521 20.6203 59.5728 20.7007 59.4676 20.7641C59.3625 20.8256 59.2396 20.8564 59.0987 20.8564C58.954 20.8564 58.8221 20.8207 58.7031 20.7493C58.586 20.6779 58.4938 20.5777 58.4264 20.4488C58.359 20.3199 58.3252 20.1731 58.3252 20.0085ZM59.7056 20.0115C59.7056 19.8885 59.6809 19.7814 59.6313 19.6902C59.5817 19.5989 59.5142 19.5295 59.429 19.4819C59.3457 19.4323 59.2534 19.4075 59.1523 19.4075C59.0511 19.4075 58.9589 19.4313 58.8756 19.4789C58.7923 19.5265 58.7259 19.5959 58.6763 19.6872C58.6267 19.7784 58.6019 19.8855 58.6019 20.0085C58.6019 20.1334 58.6267 20.2425 58.6763 20.3357C58.7259 20.427 58.7923 20.4974 58.8756 20.547C58.9589 20.5946 59.0511 20.6184 59.1523 20.6184C59.2534 20.6184 59.3457 20.5946 59.429 20.547C59.5142 20.4974 59.5817 20.427 59.6313 20.3357C59.6809 20.2425 59.7056 20.1344 59.7056 20.0115Z" fill="white"/>
</svg>
